<svg xmlns="http://www.w3.org/2000/svg">
<symbol preservedAspectRatio="xMidYMid meet"  width="30" height="30" viewBox="0 0 30 30" fill="none" id="birthday-cake">
<rect width="30" height="30" rx="15" fill="white"/>
<g id="Group 1">
<path id="Vector" d="M7 19.5V23C7 24.1046 7.89543 25 9 25H21C22.1046 25 23 24.1046 23 23V19.5" stroke="#FD3F92" stroke-width="1.5" stroke-linecap="round" stroke-linejoin="round"/>
<path id="Vector_2" d="M6 17V16C6 14.8954 6.89543 14 8 14H22C23.1046 14 24 14.8954 24 16V17" stroke="#FD3F92" stroke-width="1.5" stroke-linecap="round" stroke-linejoin="round"/>
<path id="Vector_3" d="M15 11L15 14" stroke="#FD3F92" stroke-width="1.5" stroke-linecap="round" stroke-linejoin="round"/>
<path id="Vector_4" d="M15 11C16.2624 11 17 10.0319 17 8.375C17 6.71815 15 5 15 5C15 5 13 6.71815 13 8.375C13 10.0319 13.7376 11 15 11Z" stroke="#FD3F92" stroke-width="1.5" stroke-linecap="round" stroke-linejoin="round"/>
<path id="Vector_5" d="M12 17C12 18.6569 10.6569 20 9 20C7.34315 20 6 18.6569 6 17" stroke="#FD3F92" stroke-width="1.5" stroke-linecap="round" stroke-linejoin="round"/>
<path id="Vector_6" d="M18 17C18 18.6569 16.6569 20 15 20C13.3431 20 12 18.6569 12 17" stroke="#FD3F92" stroke-width="1.5" stroke-linecap="round" stroke-linejoin="round"/>
<path id="Vector_7" d="M24 17C24 18.6569 22.6569 20 21 20C19.3431 20 18 18.6569 18 17" stroke="#FD3F92" stroke-width="1.5" stroke-linecap="round" stroke-linejoin="round"/>
</g>
</symbol>
</svg>
