<svg xmlns="http://www.w3.org/2000/svg">
<symbol preservedAspectRatio="xMidYMid meet" width="24" height="24" viewBox="0 0 24 24" fill="none" id="bisexual">
<path d="M7.27234 18.0208C10.3099 18.0208 12.7723 15.7636 12.7723 12.9792C12.7723 10.1947 10.3099 7.9375 7.27234 7.9375C4.23477 7.9375 1.77234 10.1947 1.77234 12.9792C1.77234 15.7636 4.23477 18.0208 7.27234 18.0208ZM7.27234 18.0208V21.3819M7.27234 23.0625V21.3819M7.27234 21.3819H5.43901M7.27234 21.3819H9.10567" stroke="white" stroke-width="1.5" stroke-linecap="round" stroke-linejoin="round"/>
<path d="M17.2135 5.93386C16.2702 4.99516 14.9699 4.415 13.534 4.415C10.6531 4.415 8.31775 6.75039 8.31775 9.63125C8.31775 12.5121 10.6531 14.8475 13.534 14.8475C16.4149 14.8475 18.7502 12.5121 18.7502 9.63125C18.7502 8.18627 18.1627 6.87852 17.2135 5.93386ZM17.2135 5.93386L22.2277 0.9375M22.2277 0.9375H18.7502M22.2277 0.9375V4.415" stroke="white" stroke-width="1.5" stroke-linecap="round" stroke-linejoin="round"/>
</symbol>
</svg>
