<svg xmlns="http://www.w3.org/2000/svg">
<symbol preservedAspectRatio="xMidYMid meet" width="24" height="24" viewBox="0 0 24 24" fill="none" id="gay">
<path d="M16.9846 12.6497C16.0411 11.7108 14.7405 11.1305 13.3043 11.1305C10.4228 11.1305 8.08691 13.4664 8.08691 16.3479C8.08691 19.2294 10.4228 21.5653 13.3043 21.5653C16.1858 21.5653 18.5217 19.2294 18.5217 16.3479C18.5217 14.9026 17.934 13.5945 16.9846 12.6497ZM16.9846 12.6497L22 7.65222M22 7.65222H18.5217M22 7.65222V11.1305" stroke="#424242" stroke-width="1.5" stroke-linecap="round" stroke-linejoin="round"/>
<path d="M10.8977 7.43227C9.95423 6.49337 8.65358 5.91308 7.21739 5.91308C4.33591 5.91308 2 8.24898 2 11.1305C2 14.012 4.33591 16.3479 7.21739 16.3479C10.0989 16.3479 12.4348 14.012 12.4348 11.1305C12.4348 9.68517 11.8471 8.37713 10.8977 7.43227ZM10.8977 7.43227L15.913 2.43481M15.913 2.43481H12.4348M15.913 2.43481V5.91308" stroke="#424242" stroke-width="1.5" stroke-linecap="round" stroke-linejoin="round"/>
</svg>
