<svg xmlns="http://www.w3.org/2000/svg">
<symbol preservedAspectRatio="xMidYMid meet" width="24" height="24" viewBox="0 0 24 24" fill="none" id="lesbian">
<path d="M7.88623 14.4896C10.9238 14.4896 13.3862 12.2324 13.3862 9.44792C13.3862 6.66348 10.9238 4.40625 7.88623 4.40625C4.84866 4.40625 2.38623 6.66348 2.38623 9.44792C2.38623 12.2324 4.84866 14.4896 7.88623 14.4896ZM7.88623 14.4896V17.8507M7.88623 19.5313V17.8507M7.88623 17.8507H6.0529M7.88623 17.8507H9.71956" stroke="#424242" stroke-width="1.5" stroke-linecap="round" stroke-linejoin="round"/>
<path d="M16.1139 14.5521C19.1515 14.5521 21.6139 12.2949 21.6139 9.51042C21.6139 6.72598 19.1515 4.46875 16.1139 4.46875C13.0763 4.46875 10.6139 6.72598 10.6139 9.51042C10.6139 12.2949 13.0763 14.5521 16.1139 14.5521ZM16.1139 14.5521V17.9132M16.1139 19.5938V17.9132M16.1139 17.9132H14.2806M16.1139 17.9132H17.9472" stroke="#424242" stroke-width="1.5" stroke-linecap="round" stroke-linejoin="round"/>
</symbol>
</svg>
