<svg width="37" height="37" viewBox="0 0 37 37" fill="none" xmlns="http://www.w3.org/2000/svg" id="liked">
		<rect width="37" height="37" rx="18.5" fill="#FD3F92" />
		<g clip-path="url(#clip0_37_9105)">
			<path
				d="M23.5 10.0625C22.1194 10.0625 20.8694 10.6222 19.9647 11.5272L18.7213 12.765C18.5991 12.8872 18.4016 12.8872 18.2794 12.765C18.2794 12.765 17.0384 11.5244 17.0359 11.5272C16.1306 10.6222 14.8806 10.0625 13.5 10.0625C10.7384 10.0625 8.5 12.3009 8.5 15.0625C8.5 16.1056 8.82 17.0738 9.36656 17.875C9.36656 17.875 9.59594 18.2387 9.86719 18.5097C10.1384 18.7806 17.6163 26.2587 17.6163 26.2587C17.8603 26.5028 18.1803 26.625 18.5 26.625C18.8197 26.625 19.1397 26.5028 19.3837 26.2587C19.3837 26.2587 26.8619 18.7806 27.1328 18.5097C27.4037 18.2387 27.6334 17.875 27.6334 17.875C28.18 17.0738 28.5 16.1056 28.5 15.0625C28.5 12.3009 26.2616 10.0625 23.5 10.0625ZM26.3125 15.375C26.1397 15.375 26 15.2353 26 15.0625C26 13.6819 24.8806 12.5625 23.5 12.5625C23.3272 12.5625 23.1875 12.4228 23.1875 12.25C23.1875 12.0772 23.3272 11.9375 23.5 11.9375C25.2256 11.9375 26.625 13.3369 26.625 15.0625C26.625 15.2353 26.4853 15.375 26.3125 15.375Z"
				fill="white"
			/>
		</g>
		<defs>
			<clipPath id="clip0_37_9105">
				<rect width="20" height="20" fill="white" transform="translate(8.5 8.5)" />
			</clipPath>
		</defs>
	</svg>
