<svg xmlns="http://www.w3.org/2000/svg">
<symbol preservedAspectRatio="xMidYMid meet"  width="30" height="30" viewBox="0 0 30 30" fill="none" id="login">
<rect width="30" height="30" rx="15" fill="white"/>
<g id="Group 6">
<path id="Vector" d="M15 3C8.3723 3 3 8.3723 3 15C3 21.6277 8.3723 27 15 27C21.6277 27 27 21.6277 27 15C27 8.3723 21.6277 3 15 3ZM15 25.125C9.40795 25.125 4.875 20.592 4.875 15C4.875 9.40795 9.40795 4.875 15 4.875C20.592 4.875 25.125 9.40795 25.125 15C25.125 20.592 20.592 25.125 15 25.125Z" fill="#FD3F92"/>
<path id="Vector_2" d="M16.508 14.1769H16.0864C16.1019 14.0474 16.1112 13.91 16.1112 13.7653C16.1112 13.0862 15.3966 12.5308 14.5239 12.5308C13.6512 12.5308 12.9366 13.0862 12.9366 13.7653C12.9366 13.91 12.9459 14.0474 12.9614 14.1769H12.5398C12.3204 14.1769 12.1429 14.3609 12.1429 14.5884V17.0575C12.1429 17.285 12.3204 17.469 12.5398 17.469H16.508C16.7274 17.469 16.9048 17.285 16.9048 17.0575V14.5884C16.9048 14.3609 16.7274 14.1769 16.508 14.1769ZM13.7302 14.1769C13.4923 13.6833 14.0875 13.189 14.5239 13.189C14.9603 13.189 15.5555 13.6833 15.3175 14.1769H13.7302Z" fill="#FD3F92"/>
<path id="Vector_3" d="M20.1714 17.7607L21.6667 14.989H20.7318C20.6929 11.3558 17.9727 8.585 14.5543 8.58033C11.1138 8.57641 8.3288 11.4469 8.33338 14.993C8.33718 18.5399 11.1282 21.4166 14.5687 21.4198C16.5117 21.4245 18.243 20.5095 19.3827 19.0782L18.6381 17.7984C17.7641 19.1552 16.2681 20.0458 14.5665 20.0434C11.8637 20.0419 9.67036 17.7811 9.66807 14.9946C9.66505 12.2081 11.8531 9.95363 14.5558 9.9568C17.2464 9.96152 19.3835 12.256 19.4063 14.9891L18.4782 14.9876L20.1714 17.7607Z" fill="#FD3F92"/>
</g>
</symbol>
</svg>
