<svg xmlns="http://www.w3.org/2000/svg">
<symbol preservedAspectRatio="xMidYMid meet" width="30" height="30" viewBox="0 0 30 30" fill="none" id="more">
<g id="Property 1=Default">
<g id="Group 9">
<path id="Vector" d="M15 16.25C15.6904 16.25 16.25 15.6904 16.25 15C16.25 14.3096 15.6904 13.75 15 13.75C14.3096 13.75 13.75 14.3096 13.75 15C13.75 15.6904 14.3096 16.25 15 16.25Z" fill="#FD3F92" stroke="#FD3F92" stroke-width="1.5" stroke-linecap="round" stroke-linejoin="round"/>
<path id="Vector_2" d="M15 23.75C15.6904 23.75 16.25 23.1904 16.25 22.5C16.25 21.8096 15.6904 21.25 15 21.25C14.3096 21.25 13.75 21.8096 13.75 22.5C13.75 23.1904 14.3096 23.75 15 23.75Z" fill="#FD3F92" stroke="#FD3F92" stroke-width="1.5" stroke-linecap="round" stroke-linejoin="round"/>
<path id="Vector_3" d="M15 8.75C15.6904 8.75 16.25 8.19036 16.25 7.5C16.25 6.80964 15.6904 6.25 15 6.25C14.3096 6.25 13.75 6.80964 13.75 7.5C13.75 8.19036 14.3096 8.75 15 8.75Z" fill="#FD3F92" stroke="#FD3F92" stroke-width="1.5" stroke-linecap="round" stroke-linejoin="round"/>
</g>
</g>
</svg>
