<svg xmlns="http://www.w3.org/2000/svg">
<symbol preservedAspectRatio="xMidYMid meet" width="24" height="24" viewBox="0 0 24 24" fill="none" id="navigation">
<g id="Property 1=small">
<path id="Vector" d="M8.5 12C8.5 13 8.5 14 8.62 15H8.39C7.30663 15.3076 6.27037 15.7618 5.31 16.35C4.73466 16.6953 4.19531 17.0973 3.7 17.55C2.5951 15.9025 2.00513 13.9637 2.00513 11.98C2.00513 9.99632 2.5951 8.05747 3.7 6.41C4.19531 6.86269 4.73466 7.26469 5.31 7.61C6.26465 8.2121 7.2977 8.67983 8.38 9H8.62C8.54 10 8.5 11 8.5 12ZM4.3 5.62C4.79252 6.07895 5.33219 6.48454 5.91 6.83C6.76979 7.34207 7.69482 7.73563 8.66 8C8.77345 6.80366 8.97398 5.61718 9.26 4.45C9.43752 3.65649 9.70247 2.88511 10.05 2.15C7.79214 2.61309 5.76206 3.8382 4.3 5.62ZM13.91 2.18C14.2575 2.91511 14.5225 3.68649 14.7 4.48C14.9846 5.63733 15.1851 6.81374 15.3 8C16.2694 7.72937 17.1978 7.32909 18.06 6.81C18.6473 6.47261 19.1971 6.0737 19.7 5.62C18.2231 3.84154 16.1782 2.62662 13.91 2.18ZM9.68 15.73C9.8077 17.1221 10.0553 18.5005 10.42 19.85C10.6078 20.607 10.9078 21.3317 11.31 22H12H12.69C13.0904 21.3379 13.3903 20.6201 13.58 19.87C13.9447 18.5205 14.1923 17.1421 14.32 15.75C12.7902 15.4334 11.2125 15.4266 9.68 15.73ZM14.4 9.27C13.6092 9.42321 12.8055 9.50022 12 9.5C11.1945 9.50022 10.3908 9.42321 9.6 9.27C9.53 10.12 9.5 11.04 9.5 12C9.5 12.96 9.5 13.88 9.6 14.74C11.1855 14.4349 12.8145 14.4349 14.4 14.74C14.47 13.89 14.5 12.97 14.5 12.01C14.5 11.05 14.47 10.12 14.4 9.27ZM13.58 4.15C13.3922 3.39296 13.0922 2.66827 12.69 2H12H11.31C10.9096 2.66206 10.6097 3.37988 10.42 4.13C10.0553 5.47949 9.8077 6.85794 9.68 8.25C11.2111 8.56003 12.7889 8.56003 14.32 8.25C14.1912 6.86467 13.9436 5.49296 13.58 4.15ZM20.3 6.43C19.8047 6.88269 19.2653 7.28469 18.69 7.63C17.7307 8.22518 16.6944 8.68613 15.61 9H15.38C15.46 10 15.5 11 15.5 12C15.5 13 15.5 14 15.38 15L15.62 15.06C16.7002 15.3676 17.7332 15.8218 18.69 16.41C19.2653 16.7553 19.8047 17.1573 20.3 17.61C21.4049 15.9625 21.9949 14.0237 21.9949 12.04C21.9949 10.0563 21.4049 8.11747 20.3 6.47V6.43ZM18.09 17.17C17.2302 16.6579 16.3052 16.2644 15.34 16C15.2266 17.1963 15.026 18.3828 14.74 19.55C14.5625 20.3435 14.2975 21.1149 13.95 21.85C16.2182 21.4034 18.2631 20.1885 19.74 18.41C19.2364 17.9383 18.6832 17.5225 18.09 17.17ZM9.3 19.52C9.01541 18.3627 8.81489 17.1863 8.7 16C7.73063 16.2706 6.80225 16.6709 5.94 17.19C5.35268 17.5274 4.80292 17.9263 4.3 18.38C5.77692 20.1585 7.8218 21.3734 10.09 21.82C9.74247 21.0849 9.47752 20.3135 9.3 19.52Z" fill="#FD3F92"/>
</g>
</symbol>
</svg>
