<svg xmlns="http://www.w3.org/2000/svg">
<symbol preservedAspectRatio="xMidYMid meet"  width="30" height="30" viewBox="0 0 30 30" fill="none" id="password">
<rect width="30" height="30" rx="15" fill="white"/>
<g id="Group 3">
<path id="Vector" d="M20 15H21.9C22.2314 15 22.5 15.2686 22.5 15.6V24.4C22.5 24.7314 22.2314 25 21.9 25H8.1C7.76863 25 7.5 24.7314 7.5 24.4V15.6C7.5 15.2686 7.76863 15 8.1 15H10M20 15V10C20 8.33333 19 5 15 5C11 5 10 8.33333 10 10V15M20 15H10" stroke="#FD3F92" stroke-width="1.5" stroke-linecap="round" stroke-linejoin="round"/>
<path id="Vector_2" d="M18.75 20.011L18.761 19.9988" stroke="#FD3F92" stroke-width="1.5" stroke-linecap="round" stroke-linejoin="round"/>
<path id="Vector_3" d="M15 20.011L15.011 19.9988" stroke="#FD3F92" stroke-width="1.5" stroke-linecap="round" stroke-linejoin="round"/>
<path id="Vector_4" d="M11.25 20.011L11.261 19.9988" stroke="#FD3F92" stroke-width="1.5" stroke-linecap="round" stroke-linejoin="round"/>
</g>
</symbol>
</svg>
