<svg width="37" height="37" viewBox="0 0 37 37" fill="none" xmlns="http://www.w3.org/2000/svg" id="unliked">
		<rect width="37" height="37" rx="18.5" fill="#FF0040" />
		<g clip-path="url(#clip0_37_9104)">
			<path
				d="M28.0286 15.0914C28.0286 12.1486 25.7228 9.85144 22.7886 9.85144C21.1314 9.85144 19.54 10.6229 18.5 11.8343C17.4628 10.6229 15.8714 9.85144 14.2114 9.85144C13.6228 9.85144 13.0686 9.96573 12.5428 10.14L24.3086 21.9057C26.5171 19.4629 28.0286 17.1429 28.0286 15.0914Z"
				fill="white"
			/>
			<path
				d="M9.93429 9.45142L8.97144 10.4143L10.2257 11.6686C9.44286 12.58 8.97144 13.7686 8.97144 15.0914C8.97144 18.6828 13.5914 23.0971 18.5 27.5457C19.8629 26.3086 21.1972 25.0771 22.4229 23.8628L26.1057 27.5457L27.0686 26.5828L9.93429 9.45142Z"
				fill="white"
			/>
		</g>
		<defs>
			<clipPath id="clip0_37_9104">
				<rect width="20" height="20" fill="white" transform="translate(8.5 8.5)" />
			</clipPath>
		</defs>
	</svg>